/* XPM */
static char *_31c8137ba63491caa84b3d720b4a316[] = {
/* columns rows colors chars-per-pixel */
"64 64 192 2 ",
"   c #1B1D1A",
".  c #1B2816",
"X  c #212C1D",
"o  c #3C231D",
"O  c #1D2123",
"+  c #232525",
"@  c #222629",
"#  c #25292B",
"$  c #2A2E2E",
"%  c #3E2924",
"&  c #332729",
"*  c #332A2C",
"=  c #3E2C2A",
"-  c #3E2722",
";  c #292E31",
":  c #3D2D31",
">  c #333636",
",  c #343A3C",
"<  c #2D3537",
"1  c #412B27",
"2  c #422D2C",
"3  c #43302E",
"4  c #49332B",
"5  c #442F30",
"6  c #48373B",
"7  c #443A3A",
"8  c #49393E",
"9  c #47373C",
"0  c #5E323A",
"q  c #79222D",
"w  c #733930",
"e  c #743037",
"r  c #14430A",
"t  c #6A403F",
"y  c #7D443F",
"u  c #363E40",
"i  c #4A3D42",
"p  c #453C42",
"a  c #2F7956",
"s  c #474346",
"d  c #4B4246",
"f  c #4B4549",
"g  c #464C4D",
"h  c #4A4C4E",
"j  c #474A47",
"k  c #544342",
"l  c #5C4D45",
"z  c #51464B",
"x  c #524A4D",
"c  c #5D4F49",
"v  c #4D514E",
"b  c #54524E",
"n  c #5D524B",
"m  c #474F51",
"M  c #484F50",
"N  c #475153",
"B  c #4A5355",
"V  c #4D5659",
"C  c #4F585A",
"Z  c #535355",
"A  c #5D5651",
"S  c #5E5955",
"D  c #565558",
"F  c #555C5E",
"G  c #5A5D5E",
"H  c #604F47",
"J  c #744B4C",
"K  c #784E4F",
"L  c #764845",
"P  c #62534B",
"I  c #69564F",
"U  c #625147",
"Y  c #664A50",
"T  c #784F50",
"R  c #605752",
"E  c #685750",
"W  c #605954",
"Q  c #6A5C59",
"!  c #7A5151",
"~  c #725153",
"^  c #5D615F",
"/  c #56605F",
"(  c #6E675D",
")  c #61715D",
"_  c #565F61",
"`  c #585E61",
"'  c #576162",
"]  c #5A6466",
"[  c #556668",
"{  c #5B6668",
"}  c #5B6568",
"|  c #5C6668",
" . c #5C6769",
".. c #5D676A",
"X. c #5C6668",
"o. c #56696B",
"O. c #5D686A",
"+. c #5E696B",
"@. c #5E6A6D",
"#. c #5E6A6D",
"$. c #5E696B",
"%. c #576B63",
"&. c #5F6C70",
"*. c #626665",
"=. c #696461",
"-. c #606D6F",
";. c #616C6D",
":. c #606668",
">. c #616E71",
",. c #616E71",
"<. c #637275",
"1. c #6B7474",
"2. c #667679",
"3. c #67787C",
"4. c #697A7E",
"5. c #697A7D",
"6. c #747C7D",
"7. c #AC201F",
"8. c #B7231F",
"9. c #BC2918",
"0. c #B53B1F",
"q. c #861F2C",
"w. c #951E27",
"e. c #89212C",
"r. c #9B2524",
"t. c #982928",
"y. c #952B35",
"u. c #A32125",
"i. c #AC2323",
"p. c #A22F2F",
"a. c #A9292C",
"s. c #AB2C27",
"d. c #B42322",
"f. c #B82221",
"g. c #A4302E",
"h. c #B33A20",
"j. c #A22E31",
"k. c #A43231",
"l. c #CA2D0A",
"z. c #CA290A",
"x. c #C22A13",
"c. c #C02415",
"v. c #A7432C",
"b. c #814249",
"n. c #855547",
"m. c #89635A",
"M. c #AD6F41",
"N. c #87696C",
"B. c #866C71",
"V. c #8D6F71",
"C. c #947570",
"Z. c #248104",
"A. c #72A23C",
"S. c #6A7C80",
"D. c #6B7E82",
"F. c #6B7D81",
"G. c #627B80",
"H. c #6D8084",
"J. c #6E8286",
"K. c #6E8489",
"L. c #6A888E",
"P. c #71868C",
"I. c #748A8F",
"U. c #7B8281",
"Y. c #758D93",
"T. c #779196",
"R. c #789197",
"E. c #749299",
"W. c #799399",
"Q. c #7A949A",
"!. c #7B969D",
"~. c #7B979E",
"^. c #7A949A",
"/. c #7C989E",
"(. c #7C989E",
"). c #7E9AA1",
"_. c #9BA19F",
"`. c #859EA4",
"'. c #9CA8A8",
"]. c #A5AAA7",
"[. c #A4AEAD",
"{. c #A4AAA8",
"}. c #ACB1AE",
"|. c #AEB4B1",
" X c #A7B5B6",
".X c #B1B6B3",
"XX c #B3B9B5",
"oX c #B9BEBA",
"OX c #B7BDB9",
"+X c #BCC1BD",
"@X c #BFC4C0",
"#X c #C1C6C2",
/* pixels */
"F ' ' ' ' ' ' ' ' ' ' ' ' ' _ B F N F N _ ' ' ' ' ' ' ' ' ' ' _ N _ ' ' ' ' ' ' ' ' ' ' ' ' ' ' ' ' ' ' ' ' ' ' ' ' _ B _ B _ ' ",
"m B B B B B B B B B B B B B B B B B B B B B B B B B B B B B B B B B B B B B B B B B B B B B B B B B B B B B B B B B B B B B B B ",
"g B N N M M M M M M N M N M N N N N N B B N B M M M M M M M M M M M M M M M N M N M N M N N N N N N N N N N N B N N B B N B B B ",
"g B N 8 1 % % % % % 8 2 8 2 8 i 8 8 M B B B h % % % % % % % % % % % % % % % 9 2 9 1 8 1 8 i 8 8 8 8 8 i 8 i N B B B M B B B B B ",
"g B M % j N h h h M N M N M N N M B B B B h = g M h h h h h h h h h h h h M N M N M N M N N N N N N N N M B B B B h = N ] B B B ",
"g B M - g B B B B B B B B B B N V 2.V B h = j B B B B B B B B B B B B B B B B B B B B B B B B B B B B N C 2.B B g = g B ] B N B ",
"m B N % h B B B B B B B B B N C 3.C B M 2 h B B B B B B B B B B B B B B B B B B B B B B B B B B B B N V 3.C B M 2 h B B ] B B B ",
"F ] _ 6 F ] ' ' ' ' ' ' ] ' O.Y.#.' F i D ] ' ' ' ' ' ' ' ' ' ' ' ' ' ' ] ' ' ' ' ' ' ' ' ' ' ' ' ' | 2.O.' F i D ] ' ] 5.] ' ] ",
"m V N % h V B B B B B B B F W._ B N 3 M V B B B B B B B B B B B B B B B B B B B B B B B B B B B B F R.F B N 2 M V B B V { V B B ",
"F ] _ 8 F ] ] ] ] ] ] ' O.Y.>.] _ d D ] ] ] ] ] ] ] ] ] ] ] ] ] ] ] ] ] ] ] ] ] ] ] ] ] ] ] ] ' { Y.>.] _ d F ] ] ] ] ] 5.] ] ] ",
"' | ] i ` | ] | | | ] #.^.>.] ' d ' | ] | | | | | | | | | | | | | | ] O.5.| ] | | | | | | | ] #.4.#.] ' d ' | ] | | ] #.~.#.] | ",
"_ | ] N ' { ] ] ] ] #.Y.>.] ' d G { ] ] ] ] { { ] ] ] ] ] ] ] ] ] ] #.3.F ] ] ] ] ] ] ] ] ] #.W.#.] ' d ` { ] ] ] ] ] | H.| ] ] ",
"_ | ] d ` | ] ] ] #.T.<.] ' d F { ] ] ] ] ] ] { { ] ] ] ] ] ] ] ] #.Y.z c | ] ] ] ] ] ] ] #.T.>.] ' d ` { ] ] ] ] ] ] O.^.O.] ] ",
"_ | ] B ] | ] ] #.R.-.] ' d ` | ] ] ] ] ] ] ] ] ] ] ] ] ] ] ] ] O.W.x l P ] ] ] ] ] ] ] #.W.-.] ' d ` | ] ] ] ] ] ] ] O.(.#.] ] ",
"_ | ] B ] | ] #.Y.<.] ] d F | ] ] ] ] ] ] ] ] ] { ] ] ] ] ] ] ] { ;.c P ^ ] ] ] ] ] ] #.Y.<.] ] f F { ] ] ] ] ] ] ] ] O.(.#.] ] ",
"_ | ] B ] ] #.W.>.] ] V ' | ] ] ] ] ] ] ] ] ] ] ] { ] ] ] ] ] ] ] ] P P P ] { ] ] ] #.W.-.] ] V ' | | ] ] ] ] ] ] ] ] O.(.#.] ] ",
"_ | ] B ' O.Y.<.] ] V ' { ] ] ] ] ] ] ] ] ] ] ] ] ] ] ] ] ] ] ] ] ] P P ] ] ] ] ] #.T.<.] ] V ' ] ] ] ] ] ] ] ] ] ] ] #.).#.] ] ",
"_ | ] B ] 5.>.] ] ] ] | | | | | | | | | | | | | | | | O.O.O.O.| | | P P | | O.| #.R.>.] ] ] ] | | | | O.O.O.O.O.O.| O.H.(.#.] ] ",
"_ | ] ] ] O.] ] ] | 5.S.S.S.S.S.S.S.S.S.4.S.W.H.W.H.^.~.~.~.~.^.B.N.N.N.N.B.^.~.S.-.] ] ] | 5.S.W.D.^.~.~.~.~.~.~.~.~.~.-.] ] ] ",
"_ | ] ] ] ] ] ] ] ] O.O.O.O.O.O.O.O.O.O.O.#.>.#.>.#.>.>.>.>.>.>.*.E I E I E -.>.O.] ] ] ] ] O.#.>.#.>.>.>.>.>.>.>.>.>.>.] ] ] ] ",
"_ | ] ] { { { { { { ] ] ] ] ] ] ] ] ] ] ] ] ] ] ] ] ] ] ] ] ] ] { ] P P P P ' ] ] { { { { { ] ] ] ] ] ] ] ] ] ] ] ] ] ] ] ] ] ] ",
"_ | ] ] ] ] ] ] ] ] ] ] ] ] ] ] ] ] ] ] ] ] ] ] ] ] ] ] ] ] ] ] ] ] n H P P ' ] ] ] ] ] ] ] ] ] ] ] ] ] ] ] ] ] ] ] { ] ] ] ] ] ",
"_ | ] ] i 8 i i i i i i i i i i i i i i i i i N i M i M i M i i i 8 : = 8 : 8 i i i i i i i i i i i N i N B ] ] ] ] ] ] ] ] ] ] ",
"_ | ] d h F F F F F F F F F F F F F G G G G F ' F ' F ' F ' F F ` G l l G l l G _ G G G G G G G G G ' ` ' ] ] ] ] ] V ] 5.| ] ] ",
"_ | ] 8 F O.O.O.#.;.;.#.O.;.O.#.O.O.| | | | O.O.O.O.O.| | { | | | | P ] | P ] | | | | | | | | | | | | { O.5.| ] ] V ' | D.| ] ] ",
"_ | ] i ` O.'..X}.}.}.}.|.}.|.}..X{.] ] | D.'.[.(.~.^.D.5.C 2.| ] ] P ] ] P ] ] { ] ] ] ] ] ] ] ] ] ] | 5.#.] ] V ' ] | S.| ] ] ",
"_ | ] i _ O.XX+X1.j ;.1.XXG .X6.OXoX' ' ;.'.6.1.>.>.&.#.{ $ ] C ] | P R ] P ] { { { ] ] ] ] ] ] ] ] O.3.#.] ] V ' | ] | S.| ] ] ",
"_ | ] i _ O..X+X|.}.}.|.oX}.oX.X+XoX_ ' -. XO.< @ +   # F + F V ] | P ] ] ] ] ] ] ] ] ] ] ] ] ] ] | 5.O.] ] V ] | ] ] | S.| ] ] ",
"_ | ] i _ O.XXoX6..Xv j ;.1.oX#X@XoX_ ' #.`.O.# O r Z.X _ $ _ V ] | P R ] A ] { ] ] ] ] ] ] ] ] #.Y.>.] ] f _ { ] ] ] | D.| ] ] ",
"_ | ] i ` O.].+X|.oX].].}.}.+X+X+X}.F ' #.(.O.@   . . @ F + _ V ] | P ] ] ] ] ] ] ] ] ] ] ] ] O.W.>.] ] d G | ] ] ] ] O.^.O.] ] ",
"_ | ] M ' | -.:.:.:.;.;.;.-.:.:.:.| F ] O.(.#.Z V Z B D ' # F f ] { ^ A ] { ] ] { ] ] ] ] ] O.Y.<.] ] f F | ] ] ] ] ] | K.| ] ] ",
"_ | ] d ` | ' _ _ _ _ _ _ _ F F F _ ] ] | K.*.v.=.v.=.M.^ ; _ B ] | A ^ ] ] ] { { ] ] ] ] O.Y.<.] ] f F { ] ] ] ] ] ] O.W.O.] ] ",
"_ | ] M ' O._.|.}.|.|.|.|.{.] ] | | { ] O.W.:.Q ] Q | ( ' , _ d ] ] ] { ] ] ] ] ] ] ] ] O.Y.<.] ] d F | ] ] ] ] ] ] ] O.).#.] ] ",
"_ | ] B ' O.XX+XZ 1.oXU.+XoXD ' | ] ] ] | K.:.b.*.A.%.a ' u _ i ] | S ] ] ] ] ] ] ] ] #.Y.2.] ] V F { ] ] ] ] ] ] ] ] O.(.#.] ] ",
"_ | ] B ' O.[.+X].}.+X|.+X|.V ] | ] ] ] | S.| Q | ) ] %.' ; F i ] { ] ] ] ] ] ] ] ] O.W.<.] ] V ' | ] ] ] ] ] ] ] ] ] O.(.#.] ] ",
"_ | ] B ] | <.1.1.1.;.1.;.:.F ] ] ] ] ] ] #.C V f f f z d % d M ] ] S ] ] ] ] ] ] O.Y.2.] ] C _ ] ] ] ] ] ] ] ] ] ] ] #.(.#.] ] ",
"_ | ] ] ] ] ' F F F F F F _ ] ] ] ] ] ] ] ] ' ' F G F F F G F ] ] ] ] ] ] ] ] ] O.T.<.] ] ] ] | ] ] ] ] ] ] ] ] ] ] ] S.).O.] ] ",
"_ | ] ] | 3.5.5.5.5.4.Y.D.Y.S.Y.T.Y.Y.Y.Y.T.T.T.T.T.T.T.T.T.T.T.Y.4.Y.S.Y.4.Y.Y.5.<.] ] ] | 5.5.5.Y.S.Y.S.Y.T.Y.Y.Y.T.^.<.] ] ] ",
"_ | ] ] ] #.@.#.#.#.-.<.-.<.-.<.<.<.<.<.<.<.<.<.<.<.<.<.<.<.<.<.<.-.<.-.<.-.<.<.#.] ] ] ] ] #.@.-.<.-.<.-.<.<.<.<.<.<.<.] ] ] ] ",
"_ | ] ] ] ] ] ] ] ] ] ] ] ] ] ] ] ] ] ] ] ] ] ] ] ] ] ] ] ] ] ] ] ] ] ] ] ] ] ] ] { ] ] ] ] ] ] ] ] ] ] ] ] ] ] ] ] ] ] ] ] ] ] ",
"_ | ] ] ] ] ] ] ] ] ] ] ] ] ] ] ] ] | | | ] | ] ] ] ] ] ] ] ] ] ] ] ] ] ] ] ] ] ] ] ] ] ] ] ] ] ] ] ] ] ] ] ] ] ] ] ] | ] ] ] ] ",
"' { { ] f i i i i d B d B d B B B B ] { ] { ] V d i i d i i i i i i i i i i i i i i i i i i i d B d B d B B B B B B V ] { ] ] ] ",
"_ | ] f f D D D D D F D F D F _ F F ] ] | ] x F D D D D D D D D D D D D D D D D D D D D D D D D F D F D F _ F F F F _ ] | | | | ",
"t.k.p.q t.k.k.k.k.k.k.k.k.k.k.k.g.h.g.p.j.e r.g.k.k.k.k.k.k.k.k.k.k.k.k.k.k.k.k.k.k.k.k.k.k.k.k.0.h.g.k.k.k.k.k.k.k.k.g.h.g.j.g.",
"7.f.d.q.i.f.f.f.f.f.f.f.f.f.f.f.x.9.f.f.w.u.f.f.f.f.f.f.f.f.f.f.f.f.f.f.f.f.f.f.f.f.8.f.f.f.8.x.r.s.a.f.f.f.f.f.f.f.f.8.l.8.f.f.",
"i.d.i.e.i.d.d.d.d.d.d.d.d.d.d.z.9.d.i.e.u.d.d.d.d.d.d.d.d.d.d.d.d.d.d.d.d.d.d.d.d.d.d.d.d.d.9.t.y.y.a.j.d.d.d.d.d.d.d.d.l.d.d.d.",
"7.f.d.q.i.f.f.f.f.f.f.f.f.8.z.c.f.f.w.u.f.f.f.f.f.f.f.f.f.f.f.f.f.f.f.f.f.f.f.f.f.f.f.f.f.x.r.y.j.i.f.d.x.8.f.f.f.f.f.8.l.8.f.f.",
"J ! K 0 J ! T T T T T T ! V.n.T K e Y ! T T T T T T T T T T T T T T T T T T T T T T T T K w t L ~ y K ! m.! T T T T K ! C.! K T ",
"b o.[ p ' o.o.o.o.o.o.o.E.G.o.o.h F O.o.o.o.o.o.o.o.o.o.o.o.o.o.o.o.o.o.o.o.o.o.o.o.o.o.[ p v n A / o.E.L.o.o.o.o.o.o.o.L.o.o.o.",
"D | ] h ' | | | | | | P.5.| ] x Z | | | | | | | | | | | | | | | ] ] | | | | | | | | | | ] D &.G G P.I.I.>.| | | | | ] | Y.| ] | ",
"n | ] d ` | ] ] ] | Y.3.] ] f D | ] ] ] ] ] ] ] ] ] ] ] ] ] ] ] ] ] ] ] ] ] ] ] ] ] ] ] ] | >.R.^.I.2.#.] f V ] ] ] ] O.).#.] ] ",
"D | ] h ' | ] ] ] P.5.] ] x Z { ] ] ] ] ] ] ] ] ] ] ] ] ] ] ] ] ] ] ] ] ] ] ] ] ] ] | ] ] ] ] 5.5.-.] ] x k F 2.| ] ] O.(.#.] ] ",
"A | ] B ] | ] { I.5.] ] f Z | ] ] ] ] ] ] ] ] ] ] ] ] ] ] ] ] ] | ] ] ] ] ] ] ] ] ] ] | ] ] ] ' ' ] | ] h ^ Y.H.| ] ] O.(.#.] { ",
"l | ] B ] ] ] Y.5.] ] C D ] ] ] ] ] ] ] ] ] ] ] ] ] ] | ] ] ] ] ] ] ] ] ] ] ] ] ] ] | | ] ] ] { | ] ] ] ' 3.I.>.] ] ] O.(.#.] R ",
"l W ' B ' | K.S.] ] F F O.] ] ] ] ] { { ] ] ] { { ] { { { { { { { { { { ] { { { { { { { { { { { ] { ] { | <.>.] ] | ] O.(.#.] G ",
"l ^ ] B ] 5.2.] ] ] F ] ] ] ] ] ] ] f f V V V A ' ] ' ' ' ' ' ' ' ' ' ' ] ' ' ' ' ' ' ' ' ' ' ' ] ] ] ' ' ' ' ] ' ' ' 5.).#.] R ",
"l W ] F ] <.] ] ] | 2.2.2.2.2.2.<.F k k x D b S K.3.P.P.P.P.P.P.P.P.P.P.2.P.P.P.P.P.P.P.P.P.P.P.2.K.2.P.P.P.P.P.P.P.P.W.S.| S S ",
"l G ] | ] ] ] { ] ] >.>.>.>.>.>.>.' 1.1.1.5.1.Y.5.>.5.5.5.5.5.5.5.5.5.5.<.5.5.5.5.5.5.5.5.5.5.5.<.3.<.5.5.5.5.5.5.5.5.2.] ] G S ",
"l S ] { ] { ] S ] ] ] ] ] ] ] ] ] | <.<.<.<.<.5.] ] ' ' ' ' ' ' ' ' ' ' ] ' ' ' ' ' ' ' ' ' ' ' ] ' ] ' ' ' ' ' ' ' ] ' { ] S U ",
"l P ] S ] { | G | { | | | | | | | ] ] ] ] ] ] ' | | | | | | | | | | | | | | | | | | | | | | | | | | | | | | | | | | W | S ] P P ",
"8 k f k V h V C C C C C C C C C C C C C C C C C C C C C C C C C C C C C C C C C C C C C V h C C C C C C C C V h V f b f Z V k 4 ",
"= 6 6 8 i 6 M N N s N B N f N N N N N N N N s M s m N N N N N N N N N N N N N N N N N N N 8 d N B N N N N d M 8 i f s 6 f M 9 2 ",
"o 8 2 1 6 i d B d 8 d d B 8 d N f B f d d d h d h f B f B V B B B B B B B B B B V B f N d 8 1 i d B f B f h d 8 h d 6 1 1 d 8 2 ",
"o 2 o o 2 2 2 d 5 6 2 6 f 8 6 d 3 7 2 & & & > 2 > * > * s , j f f f f f f f f f 7 d 2 d 8 2 o 2 6 7 2 7 2 7 2 6 7 6 2 1 o 2 2 o "
};
